<svg width="178" height="47" viewBox="0 0 178 47" fill="none" xmlns="http://www.w3.org/2000/svg">
<g clip-path="url(#clip0)">
<path d="M11.2841 34.3062H4.57224V17.3956H0V11.8899H4.57206V7.97212C4.57206 3.32959 6.59429 0 13.288 0C14.7037 0 16.9263 0.288403 16.9263 0.288403V5.4008H14.5918C12.2132 5.4008 11.2844 6.13206 11.2844 8.15376V11.8899H16.8372L16.3428 17.3956H11.2843L11.2841 34.3062ZM26.6846 11.4499C26.5868 11.4499 26.4862 11.4535 26.3866 11.456C20.163 11.456 17.3155 16.1874 17.3155 22.9039C17.3155 31.3648 21.0091 34.7511 26.4352 34.7511C29.5397 34.7511 31.5794 33.4304 32.8191 30.9658V34.3086H39.2031V11.8922H32.8191V15.3395C31.8069 13.1216 29.7102 11.4762 26.6846 11.4499ZM28.3078 16.7468C30.9218 16.7468 32.4907 18.5895 32.4907 21.724L32.4967 24.9254C32.4967 27.038 31.2009 29.5096 28.3078 29.5096C23.8601 29.5096 23.9789 24.6557 23.9789 23.0391C23.9789 17.601 26.3487 16.7468 28.3078 16.7468ZM41.7812 23.1015C41.7812 20.3776 41.6523 11.4645 53.1419 11.4645C57.754 11.4645 59.6799 12.9466 59.6799 12.9466L58.132 17.7989C58.132 17.7989 56.2086 16.7284 53.7025 16.7284C50.4925 16.7284 48.4443 18.6092 48.4443 21.9182L48.4478 24.291C48.4478 27.4706 50.4241 29.5931 53.7091 29.5931C55.9922 29.5931 58.0966 28.5126 58.0966 28.5126L59.6405 33.2635C59.6405 33.2635 57.8796 34.755 53.1741 34.755C42.2342 34.755 41.7812 26.7582 41.7812 23.1015ZM97.1112 11.456C103.335 11.456 106.227 16.1874 106.227 22.9039C106.227 31.3648 102.534 34.7511 97.1075 34.7511C94.003 34.7511 91.708 33.4306 90.4683 30.9658V34.3086L84.1647 34.306V0.681581L90.8575 0.0916335V15.0358C91.8234 12.4213 94.9978 11.456 97.1112 11.456ZM95.2349 16.7468C92.6209 16.7468 90.8575 18.5895 90.8575 21.724L90.8512 24.9254C90.8473 27.038 92.0725 29.5096 95.2349 29.5096C99.6826 29.5096 99.5638 24.6557 99.5638 23.0391C99.5638 17.601 97.1942 16.7468 95.2349 16.7468ZM71.2925 11.4745C64.2334 11.4745 60.5068 15.3644 60.5068 22.277V23.5613C60.5068 32.5333 65.7402 34.8432 71.9795 34.8432C78.044 34.8432 80.7891 33.1288 80.7891 33.1288L79.5367 28.5634C79.5367 28.5634 76.3077 29.9519 72.7819 29.9519C69.1268 29.9519 67.5549 29.0104 67.152 25.4603H81.3242V21.7976C81.3242 14.2992 77.1418 11.4745 71.2925 11.4745ZM71.4626 16.0461C73.9061 16.0461 75.4894 17.5605 75.4025 21.0727H67.1643C67.3071 17.3762 69.0146 16.0461 71.4626 16.0461ZM119.573 11.4437C112.323 11.4437 108.507 15.5725 108.507 22.9714C108.507 33.1231 115.086 34.7572 119.585 34.7572C126.171 34.7572 130.553 31.1734 130.553 23.0636C130.553 14.6227 125.626 11.4437 119.573 11.4437ZM119.481 16.7652C122.669 16.7652 123.932 19.1763 123.932 21.9208V24.2804C123.932 27.6051 122.165 29.5281 119.469 29.5281C116.948 29.5281 115.177 27.7293 115.177 24.2804V21.9208C115.177 18.2425 117.285 16.7652 119.481 16.7652ZM143.886 11.4437C136.637 11.4437 132.821 15.5725 132.821 22.9714C132.821 33.1231 139.399 34.7572 143.898 34.7572C150.484 34.7572 154.866 31.1734 154.866 23.0636C154.866 14.6227 149.939 11.4437 143.886 11.4437ZM143.795 16.7652C146.982 16.7652 148.245 19.1763 148.245 21.9208V24.2804C148.245 27.6051 146.478 29.5281 143.783 29.5281C141.262 29.5281 139.49 27.7293 139.49 24.2804V21.9208C139.49 18.2425 141.598 16.7652 143.795 16.7652ZM157.395 34.3062V0.681581L164.108 0.0916335V22.629L170.767 11.8899H177.855L170.909 23.0124L178.123 34.3062H171.014L164.108 23.3401V34.3062H157.395Z" fill="#1877F2"/>
</g>
<defs>
<clipPath id="clip0">
<rect width="178" height="47" fill="white"/>
</clipPath>
</defs>
</svg>
