<svg width="141" height="47" viewBox="0 0 141 47" fill="none" xmlns="http://www.w3.org/2000/svg">
<path d="M17.3095 0H18.5593C22.8983 0.0953339 27.1665 1.85901 30.2321 4.9812C29.1002 6.14904 27.9447 7.26921 26.8364 8.43705C25.1149 6.86404 23.0398 5.64853 20.7759 5.21953C17.4274 4.50453 13.8194 5.14803 11.0132 7.07854C7.94764 9.10439 5.87247 12.5364 5.42442 16.2068C4.92921 19.8295 5.94321 23.6428 8.27778 26.4552C10.518 29.196 13.9373 30.912 17.4745 31.0312C20.7759 31.2219 24.2188 30.197 26.6242 27.8613C28.5107 26.2168 29.3832 23.7143 29.6662 21.2833C25.7516 21.2833 21.8371 21.3071 17.9226 21.2833V16.3736H34.406C35.255 21.6408 34.0287 27.5753 30.067 31.341C27.4259 34.0104 23.7708 35.5834 20.0449 35.8932C16.437 36.2507 12.7111 35.5595 9.50401 33.7959C5.66024 31.7224 2.59465 28.2188 1.08543 24.0956C-0.329454 20.3061 -0.353036 16.0161 0.967526 12.2027C2.17018 8.72305 4.48116 5.64853 7.45243 3.50352C10.3058 1.38234 13.7723 0.214501 17.3095 0Z" fill="#4C8BF3"/>
<path d="M111.871 1.23938H116.918V35.2735C115.243 35.2735 113.545 35.2973 111.871 35.2497C111.895 23.9288 111.871 12.5841 111.871 1.23938Z" fill="#34A853"/>
<path d="M45.6307 13.0369C48.7434 12.441 52.1156 13.1084 54.686 14.9912C57.0205 16.6595 58.6477 19.2812 59.1429 22.1412C59.7796 25.454 58.9778 29.0767 56.8555 31.6983C54.5681 34.6298 50.8186 36.2028 47.1635 35.9645C43.8149 35.7738 40.5607 34.0817 38.5798 31.317C36.3396 28.2663 35.7972 24.0717 37.0234 20.4967C38.2497 16.6595 41.7161 13.728 45.6307 13.0369ZM46.3381 17.5652C45.0647 17.8988 43.8856 18.6377 43.0367 19.6863C40.7493 22.451 40.8908 26.9555 43.414 29.5295C44.8525 31.0072 47.022 31.6983 49.0264 31.2932C50.8893 30.9595 52.5165 29.6963 53.4126 28.028C54.9689 25.1918 54.5209 21.2832 52.1392 19.0667C50.6064 17.6367 48.3661 17.0409 46.3381 17.5652Z" fill="#EA4335"/>
<path d="M70.6272 13.0369C74.188 12.3457 78.0789 13.3467 80.7436 15.8731C85.0826 19.8056 85.5542 27.1702 81.852 31.6985C79.6117 34.5586 75.9802 36.1316 72.3958 35.9647C68.9765 35.8694 65.6043 34.1534 63.5763 31.3172C61.2889 28.195 60.7937 23.905 62.0907 20.2585C63.3877 16.5404 66.7834 13.7042 70.6272 13.0369ZM71.3346 17.5653C70.0612 17.8989 68.8821 18.6378 68.0332 19.6626C65.7694 22.3796 65.8637 26.8127 68.2926 29.4105C69.7311 30.9597 71.9713 31.7224 74.0465 31.2934C75.8858 30.9359 77.5365 29.6965 78.4326 28.0282C79.9654 25.1682 79.5174 21.2595 77.1121 19.043C75.5793 17.6129 73.339 17.0409 71.3346 17.5653Z" fill="#FFC147"/>
<path d="M91.828 14.4193C94.5399 12.7032 98.1478 12.2266 101.072 13.7042C101.992 14.1094 102.746 14.8006 103.477 15.4918C103.501 14.8483 103.477 14.1809 103.501 13.5136C105.081 13.5374 106.661 13.5136 108.264 13.5374V34.5585C108.241 37.7283 107.439 41.0889 105.175 43.4007C102.699 45.9509 98.9024 46.7374 95.4831 46.213C91.828 45.6649 88.6445 42.9717 87.2296 39.5635C88.6445 38.8723 90.1301 38.3242 91.5922 37.6807C92.4175 39.635 94.0918 41.3034 96.1906 41.6847C98.2893 42.066 100.718 41.5417 102.086 39.778C103.548 37.9667 103.548 35.488 103.477 33.2715C102.393 34.344 101.143 35.2973 99.6335 35.6548C96.3556 36.5843 92.7477 35.4403 90.2245 33.2C87.6777 30.9597 86.1684 27.5038 86.3099 24.0718C86.3807 20.1869 88.5502 16.4451 91.828 14.4193ZM96.7094 17.4699C95.2709 17.7083 93.9267 18.5186 93.0071 19.6388C90.7904 22.3081 90.7904 26.5743 93.0307 29.196C94.3041 30.7451 96.3556 31.6032 98.3365 31.3887C100.199 31.198 101.921 30.0063 102.841 28.3618C104.397 25.5733 104.138 21.7838 102.039 19.3528C100.742 17.8513 98.6666 17.1124 96.7094 17.4699Z" fill="#4C8BF3"/>
<path d="M122.978 15.6347C125.808 12.9654 130.17 12.0597 133.802 13.4659C137.245 14.7767 139.438 18.0896 140.546 21.4978C135.429 23.6428 130.335 25.764 125.218 27.909C125.925 29.2675 127.01 30.5068 128.472 31.0073C130.524 31.7462 132.976 31.484 134.698 30.1016C135.382 29.5773 135.924 28.8861 136.443 28.2188C137.74 29.1006 139.037 29.9586 140.334 30.8405C138.494 33.629 135.405 35.5833 132.08 35.8932C128.402 36.346 124.487 34.916 122.105 32.0083C118.191 27.4323 118.568 19.7579 122.978 15.6347ZM125.501 20.0439C124.699 21.2118 124.369 22.6418 124.393 24.048C127.812 22.6179 131.231 21.1879 134.651 19.7341C134.085 18.3994 132.717 17.5891 131.326 17.3746C129.085 16.9694 126.751 18.1849 125.501 20.0439Z" fill="#EA4335"/>
</svg>
